<svg width="500" height="500" viewBox="0 0 1000 1000" xmlns="http://www.w3.org/2000/svg">
  <!-- Dymaxion Map Base Structure -->
  
  <!-- Triangle segments of the Dymaxion map -->
  <!-- Placeholder triangles, should be replaced by exact geographical triangles -->
  <polygon points="500,100 650,300 350,300" fill="#8cb4f0" stroke="#000" stroke-width="1"/>
  <polygon points="500,100 500,500 650,300" fill="#8cb4f0" stroke="#000" stroke-width="1"/>
  <polygon points="500,500 650,300 800,500" fill="#8cb4f0" stroke="#000" stroke-width="1"/>
  <polygon points="500,500 800,500 700,700" fill="#8cb4f0" stroke="#000" stroke-width="1"/>
  <polygon points="500,500 300,500 200,700" fill="#8cb4f0" stroke="#000" stroke-width="1"/>
  
  <!-- Basic representation of landmass in triangle segments -->
  <polygon points="500,100 550,250 450,250" fill="#a3d977"/>
  <polygon points="350,300 400,400 300,400" fill="#a3d977"/>
  <polygon points="500,500 550,650 450,650" fill="#a3d977"/>
  <polygon points="700,700 750,850 650,850" fill="#a3d977"/>
  
  <!-- Add more landmass shapes as needed -->
  
  <!-- Label continents if desired -->
  <text x="400" y="200" font-family="Arial" font-size="18" fill="#333">North America</text>
  <text x="600" y="250" font-family="Arial" font-size="18" fill="#333">Europe</text>
  <text x="700" y="700" font-family="Arial" font-size="18" fill="#333">Asia</text>
  <text x="300" y="550" font-family="Arial" font-size="18" fill="#333">South America</text>
  <text x="550" y="750" font-family="Arial" font-size="18" fill="#333">Africa</text>
  <text x="250" y="750" font-family="Arial" font-size="18" fill="#333">Australia</text>
  
</svg>
